# xmcd
#
# Track frame offsets:
#	150
#	18930
#	36429
#	53029
#	65068
#	79918
#	98193
#	121569
#	136006
#	151622
#
# Disc length: 2217 seconds
#
# Revision: 1
# Processed by: cddbd v1.5.2PL0 Copyright (c) Steve Scherf et al.
# Submitted via: audiograbber 1.82.01
#
DISCID=7308a70a
DTITLE=Bonnie Raitt - Sweet Forgiveness
DYEAR=1977
DGENRE=Blues
TTITLE0=About to Make Me Leave Home
TTITLE1=Runaway
TTITLE2=Two Lives
TTITLE3=Louise
TTITLE4=Gamblin' Man
TTITLE5=Sweet Forgiveness  
TTITLE6=My Opening Farewell
TTITLE7=Three Time Loser
TTITLE8=Takin' My Time
TTITLE9=Home
EXTD=
EXTT0=
EXTT1=
EXTT2=
EXTT3=
EXTT4=
EXTT5=
EXTT6=
EXTT7=
EXTT8=
EXTT9=
PLAYORDER=
